<?xml version="1.0" standalone="no"?>
<!DOCTYPE svg PUBLIC "-//W3C//DTD SVG 20010904//EN"
 "http://www.w3.org/TR/2001/REC-SVG-20010904/DTD/svg10.dtd">
<svg version="1.0" xmlns="http://www.w3.org/2000/svg"
 width="280.000000pt" height="280.000000pt" viewBox="0 0 280.000000 280.000000"
 preserveAspectRatio="xMidYMid meet">
<metadata>
</metadata>
<g transform="translate(0.000000,280.000000) scale(0.100000,-0.100000)"
fill="#000000" stroke="none">
<path d="M37 2078 c16 -18 294 -327 618 -686 648 -722 627 -702 745 -702 118
0 97 -20 745 702 324 359 602 668 618 686 l31 32 -1394 0 -1394 0 31 -32z
m1351 -142 c15 -8 36 -23 46 -35 11 -12 28 -21 38 -21 25 0 69 -23 92 -49 l19
-20 -172 1 -172 2 -40 39 c-47 46 -41 57 31 57 28 0 56 8 75 20 36 24 47 24
83 6z m335 -21 c20 -14 37 -28 37 -30 0 -3 -39 -5 -87 -5 l-87 0 29 30 c35 37
59 38 108 5z m-858 -3 c27 -19 46 -52 39 -64 -6 -9 -10 -6 -14 12 -7 31 -44
38 -71 14 -23 -20 -25 -72 -4 -80 15 -6 21 -24 8 -24 -12 0 -53 64 -53 82 0
43 64 83 95 60z m1159 -83 c-9 -10 -25 -14 -44 -11 -34 5 -50 -18 -30 -43 7
-9 11 -17 8 -20 -2 -2 -20 20 -40 50 -30 45 -33 56 -21 67 11 12 23 11 77 -6
57 -19 63 -23 50 -37z m-1061 -33 c3 -9 -13 -30 -42 -54 -41 -35 -49 -38 -57
-24 -9 13 -1 24 35 53 52 43 57 44 64 25z m977 -56 c6 0 8 -5 5 -10 -5 -8 -11
-8 -20 0 -8 7 -32 8 -65 4 l-51 -7 22 -23 c12 -13 31 -26 41 -30 10 -3 16 -10
12 -15 -3 -5 -26 8 -52 28 -26 21 -49 39 -51 40 -13 9 37 43 63 43 28 1 29 2
14 14 -10 7 -18 17 -18 21 0 4 20 -9 44 -29 24 -20 49 -36 56 -36z m-901 -31
c26 -30 31 -43 23 -51 -9 -9 -12 -8 -12 4 0 30 -15 27 -57 -12 -39 -38 -41
-39 -58 -21 -15 18 -15 20 3 25 28 9 80 68 65 73 -14 5 -18 24 -5 22 4 0 22
-19 41 -40z m777 -45 c30 -29 27 -67 -8 -96 -28 -25 -55 -22 -84 8 -30 29 -27
67 8 97 28 24 55 21 84 -9z m-712 -65 c-4 -13 -7 -30 -6 -36 2 -7 -3 -13 -9
-13 -7 0 -23 -10 -36 -21 -21 -20 -23 -21 -29 -5 -5 12 2 26 20 43 15 13 30
38 33 55 5 26 8 28 20 15 10 -10 13 -22 7 -38z m51 -29 c4 -6 -6 -10 -22 -9
-25 0 -26 1 -8 9 11 5 21 9 22 9 1 1 5 -3 8 -9z m578 -31 c16 -23 17 -30 6
-50 -12 -23 -13 -23 -17 -4 -2 11 -11 28 -20 38 -17 19 -67 23 -78 6 -8 -14
55 -68 80 -69 18 0 18 -1 1 -20 -18 -19 -18 -19 -68 22 l-49 42 36 34 c44 40
79 40 109 1z m-505 -66 c35 -30 38 -68 8 -97 -29 -30 -56 -33 -84 -8 -35 29
-38 67 -8 96 29 30 56 33 84 9z m362 -19 c0 -2 -9 -4 -21 -4 -11 0 -18 4 -14
10 5 8 35 3 35 -6z m28 -94 c15 0 35 38 26 52 -4 7 -3 8 4 4 18 -11 14 -28
-16 -63 l-28 -32 -43 35 c-24 18 -48 34 -54 34 -6 0 -2 9 8 20 19 20 19 20 55
-15 20 -19 41 -35 48 -35z m-36 48 c-7 -7 -12 -8 -12 -2 0 6 3 14 7 17 3 4 9
5 12 2 2 -3 -1 -11 -7 -17z m-240 -72 c16 -20 24 -37 18 -41 -6 -3 -10 0 -10
8 0 25 -26 39 -40 22 -10 -12 -9 -16 4 -21 9 -3 13 -10 10 -16 -3 -5 -12 -1
-19 9 -13 17 -15 17 -39 -6 -21 -20 -28 -22 -41 -11 -13 11 -10 16 24 40 21
16 42 33 46 39 10 17 18 13 47 -23z m140 13 c-31 -12 -30 -44 1 -34 12 4 36 8
52 9 25 1 30 -3 33 -25 2 -17 -6 -37 -21 -54 -20 -23 -27 -26 -43 -17 -18 11
-18 11 2 12 23 0 44 18 44 37 0 16 -32 17 -47 2 -19 -19 -58 -6 -61 19 -4 27
35 75 51 65 6 -3 1 -10 -11 -14z"/>
<path d="M1910 1841 c0 -5 6 -14 14 -20 11 -9 16 -9 21 0 4 6 1 15 -6 20 -18
11 -29 11 -29 0z"/>
<path d="M1723 1643 c-8 -20 39 -63 68 -63 33 0 36 30 5 57 -32 27 -64 30 -73
6z"/>
<path d="M1169 1441 c-33 -33 -35 -43 -14 -61 30 -25 100 45 74 76 -17 20 -27
18 -60 -15z"/>
</g>
</svg>
